<mxfile host="65bd71144e">
    <diagram id="c5oSypbC6NPdUs0mJQmx" name="Page-1">
        <mxGraphModel dx="1130" dy="587" grid="1" gridSize="10" guides="1" tooltips="1" connect="1" arrows="1" fold="1" page="1" pageScale="1" pageWidth="850" pageHeight="1100" math="0" shadow="0">
            <root>
                <mxCell id="0"/>
                <mxCell id="1" parent="0"/>
                <mxCell id="2" value="Cloud Infrastructure" style="rounded=0;whiteSpace=wrap;html=1;dashed=1;verticalAlign=top;fillColor=none;" parent="1" vertex="1">
                    <mxGeometry x="40" y="40" width="760" height="320" as="geometry"/>
                </mxCell>
                <mxCell id="3" value="IoT Devices" style="rounded=0;whiteSpace=wrap;html=1;dashed=1;verticalAlign=top;fillColor=none;" parent="1" vertex="1">
                    <mxGeometry x="40" y="400" width="760" height="150" as="geometry"/>
                </mxCell>
                <mxCell id="11" value="Devices.Host" style="rounded=0;whiteSpace=wrap;html=1;verticalAlign=top;fillColor=none;" parent="1" vertex="1">
                    <mxGeometry x="80" y="60" width="280" height="280" as="geometry"/>
                </mxCell>
                <mxCell id="5" value="Devices.Service" style="rounded=0;whiteSpace=wrap;html=1;fillColor=none;" parent="1" vertex="1">
                    <mxGeometry x="120" y="100" width="200" height="40" as="geometry"/>
                </mxCell>
                <mxCell id="7" value="Devices.Service.Solutions" style="rounded=0;whiteSpace=wrap;html=1;fillColor=none;" parent="1" vertex="1">
                    <mxGeometry x="120" y="160" width="200" height="40" as="geometry"/>
                </mxCell>
                <mxCell id="8" value="Devices.Web" style="rounded=0;whiteSpace=wrap;html=1;fillColor=none;" parent="1" vertex="1">
                    <mxGeometry x="120" y="220" width="200" height="40" as="geometry"/>
                </mxCell>
                <mxCell id="9" value="Devices.Web.Solutions" style="rounded=0;whiteSpace=wrap;html=1;fillColor=none;" parent="1" vertex="1">
                    <mxGeometry x="120" y="280" width="200" height="40" as="geometry"/>
                </mxCell>
                <mxCell id="12" value="Devices.Client" style="rounded=0;whiteSpace=wrap;html=1;fillColor=none;" parent="1" vertex="1">
                    <mxGeometry x="120" y="430" width="200" height="40" as="geometry"/>
                </mxCell>
                <mxCell id="21" style="edgeStyle=orthogonalEdgeStyle;html=1;entryX=0.5;entryY=1;entryDx=0;entryDy=0;rounded=0;startArrow=none;startFill=0;endArrow=none;endFill=0;" parent="1" edge="1">
                    <mxGeometry relative="1" as="geometry">
                        <mxPoint x="320" y="510" as="sourcePoint"/>
                        <mxPoint x="500" y="470" as="targetPoint"/>
                    </mxGeometry>
                </mxCell>
                <mxCell id="13" value="Devices.Client.Solutions" style="rounded=0;whiteSpace=wrap;html=1;fillColor=none;" parent="1" vertex="1">
                    <mxGeometry x="120" y="490" width="200" height="40" as="geometry"/>
                </mxCell>
                <mxCell id="15" value="Storage &amp;amp; Data" style="rounded=0;whiteSpace=wrap;html=1;dashed=1;fillColor=none;" parent="1" vertex="1">
                    <mxGeometry x="400" y="100" width="200" height="40" as="geometry"/>
                </mxCell>
                <mxCell id="16" value="Backend Services &amp;amp; Systems" style="rounded=0;whiteSpace=wrap;html=1;dashed=1;fillColor=none;" parent="1" vertex="1">
                    <mxGeometry x="400" y="160" width="200" height="40" as="geometry"/>
                </mxCell>
                <mxCell id="18" value="Device Hardware &amp;amp; Peripherals" style="rounded=0;whiteSpace=wrap;html=1;dashed=1;fillColor=none;" parent="1" vertex="1">
                    <mxGeometry x="400" y="430" width="200" height="40" as="geometry"/>
                </mxCell>
                <mxCell id="23" style="edgeStyle=orthogonalEdgeStyle;html=1;entryX=0.5;entryY=0;entryDx=0;entryDy=0;rounded=0;startArrow=none;startFill=0;endArrow=none;endFill=0;exitX=0.5;exitY=1;exitDx=0;exitDy=0;" parent="1" source="12" target="13" edge="1">
                    <mxGeometry relative="1" as="geometry">
                        <mxPoint x="330" y="520" as="sourcePoint"/>
                        <mxPoint x="510" y="480" as="targetPoint"/>
                    </mxGeometry>
                </mxCell>
                <mxCell id="24" style="edgeStyle=orthogonalEdgeStyle;html=1;entryX=0.5;entryY=1;entryDx=0;entryDy=0;rounded=0;startArrow=none;startFill=0;endArrow=none;endFill=0;exitX=0.5;exitY=0;exitDx=0;exitDy=0;" parent="1" source="12" target="11" edge="1">
                    <mxGeometry relative="1" as="geometry">
                        <mxPoint x="340" y="530" as="sourcePoint"/>
                        <mxPoint x="520" y="490" as="targetPoint"/>
                    </mxGeometry>
                </mxCell>
                <mxCell id="25" style="edgeStyle=orthogonalEdgeStyle;html=1;entryX=0;entryY=0.5;entryDx=0;entryDy=0;rounded=0;startArrow=none;startFill=0;endArrow=none;endFill=0;exitX=1;exitY=0.5;exitDx=0;exitDy=0;" parent="1" source="12" target="18" edge="1">
                    <mxGeometry relative="1" as="geometry">
                        <mxPoint x="350" y="540" as="sourcePoint"/>
                        <mxPoint x="530" y="500" as="targetPoint"/>
                    </mxGeometry>
                </mxCell>
                <mxCell id="26" style="edgeStyle=orthogonalEdgeStyle;html=1;entryX=0;entryY=0.5;entryDx=0;entryDy=0;rounded=0;startArrow=none;startFill=0;endArrow=none;endFill=0;exitX=1;exitY=0.5;exitDx=0;exitDy=0;" parent="1" source="5" target="15" edge="1">
                    <mxGeometry relative="1" as="geometry">
                        <mxPoint x="360" y="550" as="sourcePoint"/>
                        <mxPoint x="540" y="510" as="targetPoint"/>
                    </mxGeometry>
                </mxCell>
                <mxCell id="27" style="edgeStyle=orthogonalEdgeStyle;html=1;rounded=0;startArrow=none;startFill=0;endArrow=none;endFill=0;exitX=1;exitY=0.5;exitDx=0;exitDy=0;" parent="1" source="7" edge="1">
                    <mxGeometry relative="1" as="geometry">
                        <mxPoint x="370" y="560" as="sourcePoint"/>
                        <mxPoint x="400" y="180" as="targetPoint"/>
                    </mxGeometry>
                </mxCell>
            </root>
        </mxGraphModel>
    </diagram>
</mxfile>